# xmcd
#
# Track frame offsets: 
#        150
#        13662
#        27271
#        44406
#        63600
#        76103
#        89405
#        105180
#        110104
#        118105
#        133290
#        146993
#        159075
#        167817
#        180828
#        193957
#        214501
#
# Disc length: 3074 seconds
#
# Revision: 0
# Processed by: cddbd v1.5.2PL0 Copyright (c) Steve Scherf et al.
# Submitted via: ExactAudioCopy v1.0b3
#
DISCID=ea0c0011
DTITLE=Crystal Gayle - Talking In Your Sleep
DYEAR=1977
DGENRE=Pop
TTITLE0=Everybody's Reaching out For Someone
TTITLE1=The Green Door
TTITLE2=Half The Way
TTITLE3=Wrong Road Again - Somebody Loves You
TTITLE4=Why Have You Left The One You Left Me For
TTITLE5=Talking In Your Sleep
TTITLE6=You Don't Even Know My Name
TTITLE7=Coal Miner's Daughter
TTITLE8=Blue Moon of Kentucky
TTITLE9=Ready For The Times to Get Better
TTITLE10=Midnight In The Desert
TTITLE11=More Money
TTITLE12=Don't Come Home A-Drinkin' (With Lovin' On Your Mind)
TTITLE13=That's What I Like 'Bout The South
TTITLE14=Don't It Make My Brown Eyes Blue
TTITLE15=Medley - I Saw The Light, Somebody Touched Me, I'll Fly Away,
TTITLE15=Jesus On The Mainline
TTITLE16=When I Dream
EXTD=
EXTT0=
EXTT1=
EXTT2=
EXTT3=
EXTT4=
EXTT5=
EXTT6=
EXTT7=
EXTT8=
EXTT9=
EXTT10=
EXTT11=
EXTT12=
EXTT13=
EXTT14=
EXTT15=
EXTT16=
PLAYORDER=
